<svg width="14" height="14" viewBox="0 0 14 14" fill="none" xmlns="http://www.w3.org/2000/svg">
<path fill-rule="evenodd" clip-rule="evenodd" d="M4.66663 5.25C4.66663 2.99484 6.4948 1.16667 8.74996 1.16667C11.0051 1.16667 12.8333 2.99484 12.8333 5.25C12.8333 7.50516 11.0051 9.33333 8.74996 9.33333H7.58329V10.5H6.41663V11.6667H5.24996V12.8333H1.16663V9.67504L4.75296 6.08871C4.69576 5.81494 4.66663 5.53426 4.66663 5.25ZM6.41663 9.33333V8.16667H8.74996C10.3608 8.16667 11.6666 6.86083 11.6666 5.25C11.6666 3.63917 10.3608 2.33333 8.74996 2.33333C7.13913 2.33333 5.83329 3.63917 5.83329 5.25C5.83329 5.54087 5.8757 5.82539 5.95817 6.09751L6.05956 6.43202L2.33329 10.1583V11.6667H4.08329V10.5H5.24996V9.33333H6.41663ZM7.58329 5.25C7.58329 5.89433 8.10563 6.41667 8.74996 6.41667C9.39429 6.41667 9.91663 5.89433 9.91663 5.25C9.91663 4.60567 9.39429 4.08333 8.74996 4.08333C8.10563 4.08333 7.58329 4.60567 7.58329 5.25Z" fill="#A0A9AF"/>
</svg>
