<svg width="140" height="53" viewBox="0 0 140 53" fill="none" xmlns="http://www.w3.org/2000/svg">
<g clip-path="url(#clip0_120_792)">
<path d="M48.1109 15.3654L39.446 18.9398C38.2466 16.0619 36.2091 13.6203 33.6296 11.9211L38.804 4.13698C42.9289 6.85414 46.1965 10.7615 48.1109 15.3654Z" fill="#ED1C24"/>
<path d="M34.7405 37.0606C32.0688 39.1807 28.6858 40.4475 25.003 40.4475C22.8848 40.4475 20.8628 40.0265 19.0214 39.2649C18.0911 38.8822 17.2069 38.4115 16.3804 37.8604C13.8047 36.1612 11.7634 33.7196 10.564 30.8417C9.799 29.0086 9.37613 26.9956 9.37613 24.8869C9.37613 22.7783 9.799 20.7653 10.564 18.9321C11.5866 16.479 13.2165 14.3474 15.2732 12.7171C17.945 10.5969 21.3279 9.3302 25.0069 9.3302C27.125 9.3302 29.1471 9.75117 30.9885 10.5127L34.5791 1.88671C31.6267 0.67355 28.3975 0 25.0069 0C19.1136 0 13.6971 2.02831 9.42611 5.41902C6.14312 8.02903 3.52902 11.4427 1.89906 15.3654C0.676588 18.3007 0 21.5192 0 24.8946C0 28.27 0.676588 31.4885 1.89906 34.4238C3.81734 39.0277 7.08111 42.935 11.206 45.656C12.5323 46.5324 13.9469 47.2863 15.4347 47.8986C18.3832 49.1156 21.6162 49.7892 25.0069 49.7892C30.9001 49.7892 36.3128 47.7608 40.5838 44.3663L34.7405 37.0606Z" fill="#034EA2"/>
<path d="M51.8743 33.1379L51.8973 33.2106C51.9281 35.0782 51.3553 36.5631 50.1789 37.6614C48.9988 38.7598 47.365 39.307 45.2698 39.307C43.167 39.307 41.464 38.6335 40.1531 37.2902C38.8422 35.9469 38.1887 34.2171 38.1887 32.1008V28.6527C38.1887 26.544 38.8269 24.8142 40.107 23.4633C41.3833 22.1124 43.0479 21.435 45.093 21.435C47.2496 21.435 48.9373 21.9861 50.152 23.0882C51.3668 24.1904 51.9588 25.6906 51.9242 27.5926L51.8973 27.6615H48.4952C48.4952 26.5172 48.2184 25.637 47.6687 25.0324C47.1189 24.4239 46.2578 24.1215 45.093 24.1215C44.0474 24.1215 43.217 24.5463 42.6019 25.3921C41.9868 26.2379 41.6793 27.3171 41.6793 28.6297V32.097C41.6793 33.4249 42.0022 34.5118 42.6519 35.3576C43.3016 36.2033 44.1742 36.6281 45.2775 36.6281C46.3731 36.6281 47.1804 36.3373 47.7032 35.7518C48.2261 35.1662 48.4875 34.2975 48.4875 33.1456H51.8743V33.1379Z" fill="#034EA2"/>
<path d="M59.5125 32.1123V39.0545H56.0143V21.6837H62.5956C64.587 21.6837 66.14 22.1353 67.2626 23.0385C68.3851 23.9417 68.9463 25.2007 68.9463 26.8157C68.9463 27.7151 68.7118 28.4843 68.239 29.1311C67.7662 29.774 67.078 30.2983 66.1669 30.6925C67.1972 30.9948 67.9391 31.5 68.3889 32.208C68.8387 32.916 69.0655 33.7923 69.0655 34.8333V36.1115C69.0655 36.5975 69.1309 37.1027 69.2616 37.6308C69.3923 38.1589 69.6191 38.5531 69.9382 38.8057V39.0545H66.3323C66.0132 38.798 65.8056 38.3733 65.7095 37.7762C65.6134 37.1792 65.5672 36.6167 65.5672 36.0809V34.8524C65.5672 33.9837 65.3289 33.3101 64.8522 32.8318C64.3755 32.3496 63.7066 32.1085 62.8455 32.1085H59.5125V32.1123ZM59.5125 29.4296H62.5341C63.5183 29.4296 64.2487 29.2229 64.733 28.8096C65.2174 28.3963 65.4596 27.784 65.4596 26.9726C65.4596 26.1766 65.2174 25.5452 64.733 25.0744C64.2487 24.6037 63.5375 24.3703 62.5956 24.3703H59.5164V29.4296H59.5125Z" fill="#034EA2"/>
<path d="M84.5081 31.4196H77.2809V36.3717H85.7305V39.0583H73.7826V21.6837H85.7075V24.3703H77.2847V28.7369H84.5119V31.4196H84.5081Z" fill="#034EA2"/>
<path d="M89.5554 39.0583V21.6837H95.5486C97.6821 21.6837 99.439 22.3611 100.823 23.7197C102.207 25.0744 102.895 26.8157 102.895 28.9397V31.8138C102.895 33.9454 102.203 35.6867 100.823 37.0338C99.439 38.3809 97.6821 39.0544 95.5486 39.0544H89.5554V39.0583ZM93.0537 24.3703V36.3717H95.3679C96.6211 36.3717 97.6053 35.9508 98.3164 35.1088C99.0276 34.2669 99.3813 33.1647 99.3813 31.8061V28.9091C99.3813 27.5658 99.0238 26.4751 98.3164 25.6294C97.6053 24.7874 96.6211 24.3665 95.3679 24.3665H93.0537V24.3703Z" fill="#034EA2"/>
<path d="M110.845 39.0583H107.347V21.6837H110.845V39.0583Z" fill="#ED1C24"/>
<path d="M129.924 39.0583H126.438L119.391 27.1869L119.318 27.1984V39.0583H115.82V21.6837H119.318L126.364 33.5436L126.438 33.5321V21.6837H129.924V39.0583Z" fill="#ED1C24"/>
<path d="M48.7028 47.646H45.5659V49.9001H49.2064V50.8569H44.3704V43.7157H49.1718V44.6725H45.5659V46.6893H48.7028V47.646Z" fill="#636466"/>
<path d="M52.1474 45.5488L52.2166 46.3142C52.3896 46.0425 52.6087 45.832 52.874 45.679C53.1392 45.5259 53.4353 45.4493 53.7697 45.4493C54.3233 45.4493 54.7577 45.6177 55.0691 45.9507C55.3805 46.2875 55.5342 46.8079 55.5342 47.5159V50.8492H54.3387V47.5236C54.3387 47.1256 54.2541 46.8424 54.0888 46.674C53.9235 46.5056 53.6698 46.4214 53.3315 46.4214C53.097 46.4214 52.8894 46.4711 52.7049 46.5745C52.5203 46.6778 52.3704 46.8194 52.2512 46.9993V50.8492H51.0557V45.5412H52.1474V45.5488Z" fill="#636466"/>
<path d="M60.9274 50.8569C60.8851 50.7229 60.8505 50.5928 60.8198 50.4627C60.7929 50.3364 60.7737 50.2063 60.7621 50.08C60.5968 50.3288 60.3815 50.5354 60.1124 50.7038C59.8433 50.8722 59.5435 50.9564 59.2129 50.9564C58.6593 50.9564 58.2326 50.8148 57.9328 50.5278C57.6367 50.2446 57.4868 49.8542 57.4868 49.3567C57.4868 48.8439 57.6906 48.4421 58.0981 48.1589C58.5055 47.8718 59.0783 47.7302 59.8164 47.7302H60.7468V47.2633C60.7468 46.984 60.666 46.7697 60.5007 46.6128C60.3354 46.4559 60.1009 46.3755 59.7972 46.3755C59.5243 46.3755 59.309 46.4405 59.1475 46.5707C58.9861 46.7008 58.9053 46.8692 58.9053 47.0758H57.7521L57.7482 47.0452C57.7252 46.6281 57.9135 46.2568 58.3133 45.9316C58.7131 45.6063 59.2321 45.4455 59.8741 45.4455C60.493 45.4455 60.9966 45.6024 61.3772 45.9162C61.7578 46.2301 61.95 46.6816 61.95 47.271V49.6284C61.95 49.8466 61.9654 50.057 61.9961 50.2599C62.0269 50.4627 62.073 50.6579 62.1384 50.8492H60.9274V50.8569ZM59.4589 50.0035C59.7626 50.0035 60.0317 49.9269 60.2739 49.7777C60.5161 49.6284 60.6737 49.4562 60.7544 49.261V48.4765H59.8049C59.4551 48.4765 59.186 48.5607 58.9861 48.7329C58.7862 48.9051 58.6901 49.108 58.6901 49.3376C58.6901 49.5404 58.7554 49.7011 58.89 49.8198C59.0207 49.9422 59.2129 50.0035 59.4589 50.0035Z" fill="#636466"/>
<path d="M68.8698 48.3808C68.8698 49.1577 68.6891 49.7777 68.3239 50.2522C67.9626 50.7268 67.4513 50.9602 66.7901 50.9602C66.4595 50.9602 66.1711 50.8913 65.9251 50.7574C65.6791 50.6234 65.4753 50.4283 65.31 50.168L65.1909 50.8531H64.1875V43.2067H65.3831V46.1535C65.5484 45.9277 65.7444 45.7555 65.9751 45.633C66.2057 45.5106 66.471 45.4532 66.7785 45.4532C67.4436 45.4532 67.9587 45.7096 68.3239 46.2262C68.6853 46.7429 68.8698 47.4241 68.8698 48.2775V48.3808ZM67.6742 48.2775C67.6742 47.7264 67.5781 47.2786 67.3898 46.938C67.1976 46.5974 66.8977 46.4291 66.4825 46.4291C66.2173 46.4291 65.9943 46.4865 65.8136 46.6051C65.6329 46.7237 65.4907 46.8883 65.3869 47.0949V49.3223C65.4907 49.5366 65.6291 49.6973 65.8098 49.8159C65.9905 49.9307 66.2173 49.9882 66.4902 49.9882C66.9054 49.9882 67.2052 49.8427 67.3936 49.5557C67.582 49.2649 67.6742 48.8745 67.6742 48.3808V48.2775V48.2775Z" fill="#636466"/>
<path d="M72.1492 50.8569H70.9536V43.2067H72.1492V50.8569Z" fill="#636466"/>
<path d="M75.6665 44.2515H74.4709V43.2067H75.6665V44.2515ZM75.6665 50.8569H74.4709V45.5488H75.6665V50.8569Z" fill="#636466"/>
<path d="M79.0378 45.5488L79.107 46.3142C79.28 46.0425 79.4991 45.832 79.7644 45.679C80.0296 45.5259 80.3256 45.4493 80.6601 45.4493C81.2137 45.4493 81.6481 45.6177 81.9594 45.9507C82.2708 46.2875 82.4246 46.8079 82.4246 47.5159V50.8492H81.229V47.5236C81.229 47.1256 81.1445 46.8424 80.9792 46.674C80.8139 46.5056 80.5601 46.4214 80.2218 46.4214C79.9873 46.4214 79.7798 46.4711 79.5952 46.5745C79.4107 46.6778 79.2608 46.8194 79.1416 46.9993V50.8492H77.946V45.5412H79.0378V45.5488Z" fill="#636466"/>
<path d="M84.439 48.2775C84.439 47.4356 84.6235 46.7505 84.9964 46.2339C85.3654 45.7134 85.8844 45.4532 86.5418 45.4532C86.8608 45.4532 87.1415 45.5221 87.3837 45.656C87.6258 45.79 87.8296 45.989 87.9949 46.2415L88.1141 45.5489H89.1097V50.8569C89.1097 51.5419 88.8983 52.07 88.4754 52.4413C88.0526 52.8125 87.449 53 86.6725 53C86.4149 53 86.1343 52.9617 85.8344 52.889C85.5346 52.8163 85.2616 52.7168 85.0194 52.5982L85.277 51.6606C85.4731 51.7601 85.6922 51.8404 85.9305 51.8978C86.1689 51.9552 86.4149 51.982 86.6686 51.982C87.103 51.982 87.4183 51.8902 87.6182 51.7065C87.8181 51.5228 87.918 51.2396 87.918 50.8569V50.3135C87.7489 50.5278 87.5528 50.6885 87.326 50.7957C87.0992 50.9028 86.8339 50.9602 86.5418 50.9602C85.8882 50.9602 85.377 50.7229 85.0041 50.2484C84.6312 49.7738 84.4467 49.15 84.4467 48.3808V48.2775H84.439ZM85.6384 48.3808C85.6384 48.8669 85.7345 49.2572 85.9305 49.5519C86.1266 49.8427 86.4303 49.992 86.8378 49.992C87.0953 49.992 87.3106 49.9384 87.4836 49.8313C87.6566 49.7241 87.8027 49.571 87.9103 49.372V47.049C87.7988 46.8577 87.6566 46.7046 87.4798 46.5936C87.3029 46.4826 87.0915 46.4291 86.8455 46.4291C86.4341 46.4291 86.1304 46.6013 85.9305 46.9457C85.7306 47.2901 85.6307 47.7341 85.6307 48.2813V48.3808H85.6384Z" fill="#636466"/>
<path d="M96.2525 48.1512V50.8569H95.0569V43.7157H97.8594C98.6513 43.7157 99.2702 43.9186 99.72 44.328C100.17 44.7375 100.393 45.2695 100.393 45.9354C100.393 46.6051 100.17 47.1409 99.72 47.5465C99.2702 47.9522 98.6513 48.1512 97.8594 48.1512H96.2525V48.1512ZM96.2525 47.1945H97.8594C98.3015 47.1945 98.6359 47.0758 98.8589 46.8424C99.0818 46.6051 99.1933 46.3066 99.1933 45.9469C99.1933 45.5871 99.0818 45.281 98.8589 45.0399C98.6359 44.7988 98.3015 44.6763 97.8594 44.6763H96.2525V47.1945V47.1945Z" fill="#636466"/>
<path d="M104.533 50.9602C103.779 50.9602 103.176 50.7153 102.726 50.2216C102.276 49.7279 102.053 49.0965 102.053 48.3272V48.1321C102.053 47.359 102.276 46.7199 102.722 46.2109C103.168 45.7019 103.726 45.4493 104.394 45.4532C105.113 45.4532 105.663 45.6713 106.048 46.1038C106.432 46.5362 106.62 47.1179 106.62 47.8489V48.5492H103.295L103.284 48.5722C103.303 48.9931 103.426 49.3376 103.656 49.6016C103.883 49.8695 104.202 50.0035 104.606 50.0035C104.929 50.0035 105.202 49.9652 105.432 49.8848C105.663 49.8045 105.882 49.6935 106.097 49.548L106.482 50.3287C106.282 50.5048 106.017 50.654 105.682 50.7765C105.356 50.899 104.971 50.9602 104.533 50.9602ZM104.398 46.4099C104.102 46.4099 103.86 46.5286 103.668 46.762C103.476 46.9954 103.36 47.2939 103.314 47.6537L103.326 47.6766H105.44V47.5542C105.44 47.2174 105.356 46.9419 105.183 46.7314C105.006 46.5132 104.744 46.4099 104.398 46.4099Z" fill="#636466"/>
<path d="M108.392 48.155C108.392 47.3667 108.608 46.7199 109.042 46.2148C109.48 45.7096 110.08 45.4532 110.83 45.4532C111.595 45.4532 112.194 45.7058 112.629 46.2148C113.067 46.7199 113.282 47.3667 113.282 48.155V48.2584C113.282 49.0544 113.063 49.7088 112.629 50.2101C112.194 50.7115 111.599 50.9602 110.841 50.9602C110.08 50.9602 109.48 50.7076 109.042 50.2063C108.608 49.7011 108.392 49.0544 108.392 48.2584V48.155ZM109.592 48.2545C109.592 48.7712 109.692 49.1921 109.896 49.5174C110.095 49.8389 110.411 50.0035 110.841 50.0035C111.256 50.0035 111.572 49.8427 111.775 49.5174C111.987 49.1921 112.091 48.7712 112.091 48.2545V48.1512C112.091 47.646 111.987 47.2289 111.775 46.9036C111.568 46.5745 111.253 46.4099 110.83 46.4099C110.415 46.4099 110.099 46.5745 109.896 46.9036C109.692 47.2327 109.592 47.6499 109.592 48.1512V48.2545Z" fill="#636466"/>
<path d="M119.983 48.3808C119.983 49.1539 119.802 49.7738 119.437 50.2484C119.072 50.7229 118.564 50.9602 117.915 50.9602C117.611 50.9602 117.346 50.9066 117.111 50.7995C116.877 50.6923 116.677 50.5316 116.512 50.3249V52.9005H115.316V45.5527H116.327L116.446 46.2186C116.615 45.9698 116.823 45.7823 117.065 45.6484C117.307 45.5144 117.588 45.4532 117.907 45.4532C118.564 45.4532 119.076 45.7134 119.441 46.2301C119.806 46.7467 119.991 47.4317 119.991 48.2775V48.3808H119.983ZM118.791 48.2737C118.791 47.7302 118.687 47.2901 118.484 46.9457C118.28 46.6013 117.972 46.4291 117.565 46.4291C117.315 46.4291 117.104 46.4826 116.931 46.5898C116.758 46.6969 116.615 46.8424 116.512 47.0337V49.4294C116.615 49.6169 116.758 49.7585 116.931 49.858C117.104 49.9575 117.319 50.0073 117.576 50.0073C117.984 50.0073 118.288 49.858 118.491 49.5595C118.695 49.261 118.795 48.8668 118.795 48.3808V48.2737H118.791Z" fill="#636466"/>
<path d="M123.266 50.8569H122.07V43.2067H123.266V50.8569Z" fill="#636466"/>
<path d="M127.829 50.9602C127.076 50.9602 126.472 50.7153 126.022 50.2216C125.573 49.7279 125.35 49.0965 125.35 48.3272V48.1321C125.35 47.359 125.573 46.7199 126.019 46.2109C126.465 45.7019 127.022 45.4493 127.691 45.4532C128.41 45.4532 128.959 45.6713 129.344 46.1038C129.728 46.5362 129.917 47.1179 129.917 47.8489V48.5492H126.591L126.58 48.5722C126.599 48.9931 126.722 49.3376 126.953 49.6016C127.18 49.8695 127.499 50.0035 127.902 50.0035C128.225 50.0035 128.498 49.9652 128.729 49.8848C128.959 49.8045 129.179 49.6935 129.394 49.548L129.778 50.3287C129.578 50.5048 129.313 50.654 128.979 50.7765C128.652 50.899 128.268 50.9602 127.829 50.9602ZM127.691 46.4099C127.395 46.4099 127.153 46.5286 126.96 46.762C126.768 46.9954 126.653 47.2939 126.607 47.6537L126.618 47.6766H128.733V47.5542C128.733 47.2174 128.648 46.9419 128.475 46.7314C128.298 46.5132 128.041 46.4099 127.691 46.4099Z" fill="#636466"/>
<path d="M135.898 20.0726C133.638 20.0726 131.796 18.2394 131.796 15.9892C131.796 13.7389 133.638 11.9058 135.898 11.9058C138.158 11.9058 140 13.7389 140 15.9892C140 18.2394 138.162 20.0726 135.898 20.0726ZM135.898 12.4071C133.914 12.4071 132.3 14.0144 132.3 15.9892C132.3 17.9639 133.914 19.5712 135.898 19.5712C137.882 19.5712 139.496 17.9639 139.496 15.9892C139.496 14.0144 137.882 12.4071 135.898 12.4071Z" fill="#636466"/>
<path d="M135.917 16.3987H134.906V18.1361H134.333V13.8422H135.759C136.244 13.8422 136.617 13.9532 136.878 14.1713C137.14 14.3895 137.27 14.711 137.27 15.1319C137.27 15.3998 137.197 15.6333 137.051 15.8323C136.905 16.0313 136.705 16.1805 136.448 16.2762L137.459 18.0978V18.1323H136.855L135.917 16.3987ZM134.906 15.9356H135.779C136.059 15.9356 136.286 15.8629 136.451 15.7175C136.617 15.572 136.701 15.3768 136.701 15.1319C136.701 14.8679 136.621 14.6612 136.463 14.5196C136.305 14.378 136.075 14.3053 135.775 14.3053H134.906V15.9356V15.9356Z" fill="#636466"/>
</g>
<defs>
<clipPath id="clip0_120_792">
<rect width="140" height="53" fill="white"/>
</clipPath>
</defs>
</svg>
